<?xml version="1.0" encoding="utf-8"?>
<!-- Generator: Adobe Illustrator 21.1.0, SVG Export Plug-In . SVG Version: 6.00 Build 0)  -->
<svg version="1.1" id="Слой_1" xmlns="http://www.w3.org/2000/svg" xmlns:xlink="http://www.w3.org/1999/xlink" x="0px" y="0px"
	 viewBox="0 0 251.3 203" style="enable-background:new 0 0 251.3 203;" xml:space="preserve">
<path d="M8.4,12.2h235.7c4,0,7.2,3.8,7.2,8.5l0,0c0,4.7-3.2,8.5-7.2,8.5H8.4c-4,0-7.2-3.8-7.2-8.5l0,0C1.2,16,4.4,12.2,8.4,12.2z"/>
<path d="M8.4,74.4h235.7c4,0,7.2,3.8,7.2,8.5l0,0c0,4.7-3.2,8.5-7.2,8.5H8.4c-4,0-7.2-3.8-7.2-8.5l0,0C1.2,78.2,4.4,74.4,8.4,74.4z"
	/>
<path d="M40.2,137.1h172.4c2.9,0,5.3,2.2,5.3,5v0c0,2.7-2.4,5-5.3,5H40.2c-2.9,0-5.3-2.2-5.3-5v0C34.9,139.3,37.2,137.1,40.2,137.1z
	"/>
<path d="M66.5,193.8h119.5c2,0,3.7,2,3.7,4.6v0.1c0,2.5-1.7,4.6-3.7,4.6H66.5c-2,0-3.7-2-3.7-4.6v-0.1
	C62.8,195.8,64.5,193.8,66.5,193.8z"/>
<circle cx="232.1" cy="19.3" r="19.3"/>
<circle cx="146.8" cy="82.9" r="19.3"/>
</svg>
