<?xml version="1.0" encoding="utf-8"?>
<!-- Generator: Adobe Illustrator 21.1.0, SVG Export Plug-In . SVG Version: 6.00 Build 0)  -->
<svg version="1.1" id="Слой_1" xmlns="http://www.w3.org/2000/svg" xmlns:xlink="http://www.w3.org/1999/xlink" x="0px" y="0px"
	 viewBox="0 0 184 160.1" style="enable-background:new 0 0 184 160.1;" xml:space="preserve">
<style type="text/css">
	.st0{fill:#020202;}
</style>
<path class="st0" d="M130.8,53.6H53.2c-3.7,0-6.8-3-6.8-6.8s3-6.7,6.8-6.7h77.7c3.7,0,6.8,3,6.8,6.7S134.5,53.6,130.8,53.6z
	 M130.8,82.2H53.2c-3.7,0-6.8-3-6.8-6.8c0-3.6,3-6.7,6.8-6.7h77.7c3.7,0,6.8,3,6.8,6.7C137.6,79.3,134.5,82.2,130.8,82.2z M143.9,0
	H40.1C18,0,0,18,0,40.1v45c0,16.1,9.3,30.2,23.5,36.5l0.9,28.8c0.2,3.9,2.6,7.4,6.2,9l3.9,0.8c2.5,0,5-1,6.9-2.7l34.6-32.3h67.9
	c22.1,0,40.1-17.9,40.1-40v-45C184,18,166,0,143.9,0z"/>
</svg>
