<?xml version="1.0" encoding="utf-8"?>
<!-- Generator: Adobe Illustrator 21.1.0, SVG Export Plug-In . SVG Version: 6.00 Build 0)  -->
<svg version="1.1" id="Слой_1" xmlns="http://www.w3.org/2000/svg" xmlns:xlink="http://www.w3.org/1999/xlink" x="0px" y="0px"
	 viewBox="0 0 236.9 348.7" style="enable-background:new 0 0 236.9 348.7;" xml:space="preserve">
<g>
	<path d="M200.1,192.3v-4.1h-37.3c-0.6,0-1.2-0.6-1.2-1.3v-15.6c0-0.7,0.6-1.3,1.2-1.3h37.3c0.7,0,1.3,0.6,1.3,1.3v15.6
		c0,0.7-0.6,1.3-1.3,1.3V192.3v4.1c5.3,0,9.6-4.3,9.6-9.6v-15.6c0-5.3-4.3-9.6-9.6-9.6h-37.3c-5.2,0-9.6,4.3-9.6,9.6l0.1,15.6
		c0,5.3,4.3,9.6,9.5,9.6h37.3V192.3z"/>
	<path d="M205.6,342.5v-6.2H31.3c-5.2,0-9.8-2.1-13.2-5.5c-3.4-3.4-5.5-8.1-5.5-13.3V31.3c0-5.3,2.1-9.9,5.5-13.3s8-5.5,13.2-5.5
		h174.4c5.2,0,9.8,2.1,13.2,5.5c3.4,3.4,5.5,8,5.5,13.3v286.2c0,5.2-2.1,9.9-5.5,13.3c-3.4,3.4-8,5.5-13.2,5.5V342.5v6.2
		c17.2,0,31.3-13.9,31.3-31.3V31.3c0-17.3-14.1-31.3-31.3-31.3H31.3C14.1,0,0,13.9,0,31.3v286.2c0,17.3,14.1,31.3,31.3,31.3h174.4
		V342.5z"/>
	<path d="M197.5,27.6v-4.1h-156c-4.4,0-8.6,1.9-11.4,5c-3,3-4.7,7.3-4.7,11.9v97.8c0,4,1.5,7.7,4,10.4s6.1,4.3,10.1,4.3h158.1
		c4,0,7.6-1.6,10.1-4.3s4-6.4,4-10.4v-100c0-4-1.5-7.7-4-10.4s-6.1-4.3-10.1-4.3V27.6v4.1c1.5,0,2.8,0.6,4,1.8
		c1,1.2,1.8,2.7,1.8,4.6v100c0,1.9-0.7,3.4-1.8,4.6c-1.2,1.2-2.5,1.8-4,1.8H39.4c-1.5,0-3-0.6-4-1.8c-1-1.2-1.8-2.7-1.8-4.6V40.3
		c0-2.5,1-4.6,2.4-6.2c1.5-1.5,3.4-2.4,5.5-2.4h156V27.6z"/>
	<path d="M75.4,96.1l27,28c1.6,1.6,3.7,2.5,6.1,2.5c2.2,0,4.4-1,6.1-2.7l55-59.4c3.1-3.4,2.8-8.6-0.6-11.7c-3.3-3.3-8.6-3-11.7,0.4
		l-48.9,52.9L87.4,84.6c-3.1-3.4-8.4-3.4-11.7-0.3C72.3,87.5,72.3,92.7,75.4,96.1L75.4,96.1z"/>
	<rect x="8.1" y="208.3" width="221.7" height="10.5"/>
	<path d="M40,161.9h42.9c2.7,0,4.9,2.2,4.9,4.9l0,0c0,2.7-2.2,4.9-4.9,4.9H40c-2.7,0-4.9-2.2-4.9-4.9l0,0
		C35.1,164.1,37.3,161.9,40,161.9z"/>
</g>
</svg>
